<?xml version="1.0" encoding="UTF-8" standalone="no"?>
<!-- Created with Inkscape (http://www.inkscape.org/) -->

<svg
   id="svg5"
   version="1.1"
   viewBox="0 0 40.746452 13.652979"
   height="13.652979mm"
   width="40.746452mm"
   sodipodi:docname="hylight_logo_transparent.svg"
   inkscape:version="1.1.2 (0a00cf5339, 2022-02-04, custom)"
   inkscape:export-filename="/home/theo/host/Downloads/hylight_logo.png"
   inkscape:export-xdpi="96"
   inkscape:export-ydpi="96"
   xmlns:inkscape="http://www.inkscape.org/namespaces/inkscape"
   xmlns:sodipodi="http://sodipodi.sourceforge.net/DTD/sodipodi-0.dtd"
   xmlns="http://www.w3.org/2000/svg"
   xmlns:svg="http://www.w3.org/2000/svg">
  <sodipodi:namedview
     id="namedview7"
     pagecolor="#505050"
     bordercolor="#eeeeee"
     borderopacity="1"
     inkscape:pageshadow="0"
     inkscape:pageopacity="0"
     inkscape:pagecheckerboard="0"
     inkscape:document-units="mm"
     showgrid="false"
     inkscape:zoom="5.0192678"
     inkscape:cx="71.723609"
     inkscape:cy="53.19501"
     inkscape:window-width="1680"
     inkscape:window-height="1026"
     inkscape:window-x="0"
     inkscape:window-y="0"
     inkscape:window-maximized="1"
     inkscape:current-layer="layer1"
     fit-margin-top="0"
     fit-margin-left="0"
     fit-margin-right="0"
     fit-margin-bottom="0" />
  <defs
     id="defs2">
    <rect
       x="117.72515"
       y="171.82916"
       width="462.07712"
       height="275.0029"
       id="rect3026" />
    <rect
       x="117.72515"
       y="171.82916"
       width="462.07712"
       height="275.0029"
       id="rect3026-3" />
  </defs>
  <g
     inkscape:label="Calque 1"
     inkscape:groupmode="layer"
     id="layer1"
     transform="translate(-29.42486,-45.979076)">
    <g
       id="g81104">
      <path
         style="fill:none;fill-opacity:1;stroke:#0aff16;stroke-width:0.258313;stroke-linecap:round;stroke-linejoin:miter;stroke-miterlimit:4;stroke-dasharray:none;stroke-opacity:1"
         d="m 33.3508,57.2734 v 0 c 1.272091,-1.271759 2.544088,-0.82129 3.816085,0.373823 1.272091,1.195114 2.544088,-0.102161 3.81618,-1.076443 1.271996,-0.974181 2.543992,1.013306 3.816084,1.649185 1.271996,0.63598 2.544088,-1.802176 3.816084,-2.023008 1.271997,-0.220832 2.544089,2.373718 3.816085,2.152886 1.272091,-0.220832 2.544088,-2.658988 3.816084,-2.023008 1.272092,0.635879 2.544089,2.623466 3.81618,1.649185 1.271997,-0.974282 2.543994,-2.271557 3.816084,-1.076443 1.271997,1.195113 2.544089,1.645682 3.816085,0.373823 v 0"
         title="sin(x)"
         id="path80673" />
      <path
         id="path48852"
         style="fill:#23ff0a;stroke-width:1.00157;stroke-linecap:round;stroke-linejoin:round"
         inkscape:transform-center-x="0.10710513"
         inkscape:transform-center-y="0.095968507"
         transform="matrix(0.26458333,0,0,0.26458333,-1.0778764,-1.0033514)"
         d="m 133.34925,224.1388 -3.87269,-2.43744 -3.54385,2.93634 2.43743,-3.87269 -2.93634,-3.54385 3.8727,2.43743 3.54385,-2.93634 -2.43744,3.8727 z" />
      <path
         id="path48852-7"
         style="fill:#23ff0a;stroke-width:1.00157;stroke-linecap:round;stroke-linejoin:round"
         inkscape:transform-center-x="0.029691948"
         inkscape:transform-center-y="0.14071068"
         transform="matrix(0.2134452,-0.15635052,0.15635052,0.2134452,-29.010301,30.54933)"
         d="m 132.19242,222.85495 -2.67361,-1.4061 -2.30225,2.03202 1.40609,-2.67361 -2.03202,-2.30225 2.67361,1.40609 2.30225,-2.03201 -1.40609,2.6736 z" />
    </g>
    <g
       id="g81099">
      <g
         aria-label="Hylight"
         transform="matrix(0.26458333,0,0,0.26458333,0.03468137,-0.19280174)"
         id="text3024-6"
         style="font-size:40px;line-height:1.25;font-family:Oxygen;-inkscape-font-specification:Oxygen;white-space:pre;shape-inside:url(#rect3026-3)">
        <path
           d="M 120.81055,209.35908 V 180.7458 h 5.29297 v 11.69922 H 139.0332 V 180.7458 h 5.29297 v 28.61328 h -5.29297 v -12.73437 h -12.92968 v 12.73437 z"
           style="font-weight:bold;-inkscape-font-specification:'Oxygen Bold';fill:#f4fff8"
           id="path964" />
        <path
           d="m 151.14258,218.40205 q -1.25,0 -2.65625,-0.15625 l -0.25391,-3.96484 q 0.89844,0.0977 2.28516,0.0977 1.77734,0 2.85156,-0.70312 1.07422,-0.70313 1.77734,-2.5 0.0781,-0.19532 0.78125,-2.20703 l -8.63281,-21.07422 h 5.46875 l 5.64453,15.5664 q 0.625,-2.32422 2.79297,-8.63281 2.1875,-6.30859 2.40235,-6.93359 h 5.46875 q -8.92579,23.59375 -9.00391,23.78906 -1.38672,3.61328 -3.49609,5.15625 -2.10938,1.5625 -5.42969,1.5625 z"
           style="font-weight:bold;-inkscape-font-specification:'Oxygen Bold';fill:#f4fff8"
           id="path966" />
        <path
           d="m 179.32617,209.65205 q -2.20703,0 -3.67187,-0.50781 -1.44532,-0.52735 -2.28516,-1.66016 -0.83984,-1.13281 -1.17187,-2.69531 -0.33204,-1.5625 -0.33204,-3.88672 v -20.91797 l 5.11719,-0.33203 v 21.15234 q 0,2.89063 0.6836,3.92578 0.68359,1.01563 2.65625,1.01563 0.97656,0 2.48046,-0.21484 l 0.13672,3.65234 q -0.0195,0 -0.48828,0.0977 -0.44922,0.0977 -0.8789,0.15625 -0.41016,0.0781 -1.05469,0.13671 -0.64453,0.0781 -1.19141,0.0781 z"
           style="font-weight:bold;-inkscape-font-specification:'Oxygen Bold';fill:#f4fff8"
           id="path968" />
        <path
           d="m 185.5957,209.35908 v -21.46484 h 5.11719 v 21.46484 z m 0,-24.58984 v -4.375 h 5.13672 v 4.375 z"
           style="font-weight:bold;-inkscape-font-specification:'Oxygen Bold';fill:#f4fff8"
           id="path970" />
        <path
           d="m 200.3418,218.96846 -0.29297,-4.14063 h 2.59765 q 4.51172,0 6.3086,-1.21094 1.79687,-1.1914 1.79687,-4.39453 0,-1.30859 -0.11718,-2.83203 -0.50782,0.70313 -0.97657,1.17188 -0.44922,0.44921 -1.15234,0.89843 -0.68359,0.44922 -1.66016,0.6836 -0.95703,0.21484 -2.1875,0.21484 -4.25781,0 -7.01172,-3.06641 -2.73437,-3.0664 -2.73437,-7.91015 0,-2.57813 0.76172,-4.6875 0.76172,-2.12891 2.07031,-3.4961 1.30859,-1.36718 3.00781,-2.08984 1.71875,-0.74219 3.65235,-0.74219 4.3164,0 6.42578,3.14453 l 0.35156,-2.61718 h 4.57031 v 19.9414 q 0,1.60157 -0.15625,2.8711 -0.15625,1.28906 -0.54687,2.46093 -0.39063,1.19141 -1.03516,2.07032 -0.625,0.8789 -1.58203,1.60156 -0.95703,0.72266 -2.26562,1.17187 -1.28907,0.46875 -3.00782,0.70313 -1.71875,0.25391 -3.86718,0.25391 z m 5.13672,-13.1836 q 5.29296,0 5.35156,-7.08984 v -0.74219 q -0.0391,-3.18359 -1.32813,-4.92187 -1.28906,-1.73829 -3.76953,-1.75782 -2.8125,0 -4.25781,1.9336 -1.44531,1.91406 -1.44531,5.17578 0,3.14453 1.44531,5.27344 1.46484,2.1289 4.00391,2.1289 z"
           style="font-weight:bold;-inkscape-font-specification:'Oxygen Bold';fill:#f4fff8"
           id="path972" />
        <path
           d="m 220.79102,209.35908 v -29.375 l 5.11718,-0.33203 v 6.19141 q 0,0.44921 -0.0586,2.5 -0.0586,2.03125 -0.0586,2.07031 2.55859,-3.04688 6.875,-3.04688 3.59375,0 5.5664,2.07032 1.99219,2.05078 1.99219,6.32812 v 13.59375 h -5.11719 v -13.02734 q 0,-2.63672 -0.83984,-3.86719 -0.83985,-1.23047 -2.85156,-1.23047 -1.71875,0 -3.04688,0.87891 -1.32812,0.85937 -1.99219,2.22656 -0.46875,1.79687 -0.46875,4.6875 v 10.33203 z"
           style="font-weight:bold;-inkscape-font-specification:'Oxygen Bold';fill:#f4fff8"
           id="path974" />
        <path
           d="m 253.83789,209.65205 q -2.1875,0 -3.65234,-0.50781 -1.44532,-0.52735 -2.26563,-1.64063 -0.82031,-1.11328 -1.17187,-2.61719 -0.33203,-1.52343 -0.33203,-3.75 v -10.13671 h -3.51563 l 0.19531,-2.77344 3.67188,-0.33203 1.64062,-5.82032 3.125,-0.0195 v 5.83985 h 5.33203 v 3.10547 h -5.33203 v 10.23437 q 0,2.44141 0.70313,3.47656 0.70312,1.03516 2.59765,1.03516 1.11329,0 2.38282,-0.19531 l 0.13672,3.67187 q -0.0391,0 -0.48829,0.0977 -0.42968,0.0781 -0.83984,0.13672 -0.39062,0.0781 -1.01562,0.13672 -0.625,0.0586 -1.17188,0.0586 z"
           style="font-weight:bold;-inkscape-font-specification:'Oxygen Bold';fill:#f4fff8"
           id="path976" />
      </g>
      <g
         aria-label="Hylight"
         transform="matrix(0.26458333,0,0,0.26458333,-0.14905772,-0.52253811)"
         id="text3024"
         style="font-size:40px;line-height:1.25;font-family:Oxygen;-inkscape-font-specification:Oxygen;white-space:pre;shape-inside:url(#rect3026)">
        <path
           d="M 120.81055,209.35908 V 180.7458 h 5.29297 v 11.69922 H 139.0332 V 180.7458 h 5.29297 v 28.61328 h -5.29297 v -12.73437 h -12.92968 v 12.73437 z"
           style="font-weight:bold;-inkscape-font-specification:'Oxygen Bold';fill:#1a535c"
           id="path979" />
        <path
           d="m 151.14258,218.40205 q -1.25,0 -2.65625,-0.15625 l -0.25391,-3.96484 q 0.89844,0.0977 2.28516,0.0977 1.77734,0 2.85156,-0.70312 1.07422,-0.70313 1.77734,-2.5 0.0781,-0.19532 0.78125,-2.20703 l -8.63281,-21.07422 h 5.46875 l 5.64453,15.5664 q 0.625,-2.32422 2.79297,-8.63281 2.1875,-6.30859 2.40235,-6.93359 h 5.46875 q -8.92579,23.59375 -9.00391,23.78906 -1.38672,3.61328 -3.49609,5.15625 -2.10938,1.5625 -5.42969,1.5625 z"
           style="font-weight:bold;-inkscape-font-specification:'Oxygen Bold';fill:#23ff0a"
           id="path981" />
        <path
           d="m 179.32617,209.65205 q -2.20703,0 -3.67187,-0.50781 -1.44532,-0.52735 -2.28516,-1.66016 -0.83984,-1.13281 -1.17187,-2.69531 -0.33204,-1.5625 -0.33204,-3.88672 v -20.91797 l 5.11719,-0.33203 v 21.15234 q 0,2.89063 0.6836,3.92578 0.68359,1.01563 2.65625,1.01563 0.97656,0 2.48046,-0.21484 l 0.13672,3.65234 q -0.0195,0 -0.48828,0.0977 -0.44922,0.0977 -0.8789,0.15625 -0.41016,0.0781 -1.05469,0.13671 -0.64453,0.0781 -1.19141,0.0781 z"
           style="font-weight:bold;-inkscape-font-specification:'Oxygen Bold';fill:#1a535c"
           id="path983" />
        <path
           d="m 185.5957,209.35908 v -21.46484 h 5.11719 v 21.46484 z m 0,-24.58984 v -4.375 h 5.13672 v 4.375 z"
           style="font-weight:bold;-inkscape-font-specification:'Oxygen Bold';fill:#1a535c"
           id="path985" />
        <path
           d="m 200.3418,218.96846 -0.29297,-4.14063 h 2.59765 q 4.51172,0 6.3086,-1.21094 1.79687,-1.1914 1.79687,-4.39453 0,-1.30859 -0.11718,-2.83203 -0.50782,0.70313 -0.97657,1.17188 -0.44922,0.44921 -1.15234,0.89843 -0.68359,0.44922 -1.66016,0.6836 -0.95703,0.21484 -2.1875,0.21484 -4.25781,0 -7.01172,-3.06641 -2.73437,-3.0664 -2.73437,-7.91015 0,-2.57813 0.76172,-4.6875 0.76172,-2.12891 2.07031,-3.4961 1.30859,-1.36718 3.00781,-2.08984 1.71875,-0.74219 3.65235,-0.74219 4.3164,0 6.42578,3.14453 l 0.35156,-2.61718 h 4.57031 v 19.9414 q 0,1.60157 -0.15625,2.8711 -0.15625,1.28906 -0.54687,2.46093 -0.39063,1.19141 -1.03516,2.07032 -0.625,0.8789 -1.58203,1.60156 -0.95703,0.72266 -2.26562,1.17187 -1.28907,0.46875 -3.00782,0.70313 -1.71875,0.25391 -3.86718,0.25391 z m 5.13672,-13.1836 q 5.29296,0 5.35156,-7.08984 v -0.74219 q -0.0391,-3.18359 -1.32813,-4.92187 -1.28906,-1.73829 -3.76953,-1.75782 -2.8125,0 -4.25781,1.9336 -1.44531,1.91406 -1.44531,5.17578 0,3.14453 1.44531,5.27344 1.46484,2.1289 4.00391,2.1289 z"
           style="font-weight:bold;-inkscape-font-specification:'Oxygen Bold';fill:#1a535c"
           id="path987" />
        <path
           d="m 220.79102,209.35908 v -29.375 l 5.11718,-0.33203 v 6.19141 q 0,0.44921 -0.0586,2.5 -0.0586,2.03125 -0.0586,2.07031 2.55859,-3.04688 6.875,-3.04688 3.59375,0 5.5664,2.07032 1.99219,2.05078 1.99219,6.32812 v 13.59375 h -5.11719 v -13.02734 q 0,-2.63672 -0.83984,-3.86719 -0.83985,-1.23047 -2.85156,-1.23047 -1.71875,0 -3.04688,0.87891 -1.32812,0.85937 -1.99219,2.22656 -0.46875,1.79687 -0.46875,4.6875 v 10.33203 z"
           style="font-weight:bold;-inkscape-font-specification:'Oxygen Bold';fill:#1a535c"
           id="path989" />
        <path
           d="m 253.83789,209.65205 q -2.1875,0 -3.65234,-0.50781 -1.44532,-0.52735 -2.26563,-1.64063 -0.82031,-1.11328 -1.17187,-2.61719 -0.33203,-1.52343 -0.33203,-3.75 v -10.13671 h -3.51563 l 0.19531,-2.77344 3.67188,-0.33203 1.64062,-5.82032 3.125,-0.0195 v 5.83985 h 5.33203 v 3.10547 h -5.33203 v 10.23437 q 0,2.44141 0.70313,3.47656 0.70312,1.03516 2.59765,1.03516 1.11329,0 2.38282,-0.19531 l 0.13672,3.67187 q -0.0391,0 -0.48829,0.0977 -0.42968,0.0781 -0.83984,0.13672 -0.39062,0.0781 -1.01562,0.13672 -0.625,0.0586 -1.17188,0.0586 z"
           style="font-weight:bold;-inkscape-font-specification:'Oxygen Bold';fill:#1a535c"
           id="path991" />
      </g>
    </g>
  </g>
</svg>
